<?xml version="1.0" standalone="no"?>
<!DOCTYPE svg PUBLIC "-//W3C//DTD SVG 20010904//EN"
 "http://www.w3.org/TR/2001/REC-SVG-20010904/DTD/svg10.dtd">
<svg version="1.0" xmlns="http://www.w3.org/2000/svg"
 width="768.000000pt" height="510.000000pt" viewBox="0 0 768.000000 510.000000"
 preserveAspectRatio="xMidYMid meet">
<metadata>
Created by potrace 1.16, written by Peter Selinger 2001-2019
</metadata>
<g transform="translate(0.000000,510.000000) scale(0.100000,-0.100000)"
fill="#000000" stroke="none">
<path d="M0 4651 c0 -261 4 -452 9 -455 5 -4 11 -1 13 5 2 6 21 13 43 15 21 2
42 9 46 15 10 17 40 20 56 7 10 -8 13 -6 13 5 0 17 21 27 59 27 15 0 33 6 40
13 11 10 12 9 6 -2 -6 -11 -2 -12 21 -7 16 4 39 8 51 8 14 0 20 5 16 14 -4 10
3 14 21 14 15 0 29 7 32 15 8 21 21 19 27 -5 5 -18 8 -18 39 -8 18 6 36 16 40
21 7 11 61 12 116 3 17 -3 32 -1 32 4 0 9 49 21 98 24 15 1 33 5 40 10 7 4 41
10 75 13 34 3 65 11 69 18 4 6 21 10 38 9 19 -1 33 3 37 12 3 8 13 14 22 14
14 0 14 2 1 10 -11 7 -7 10 18 10 31 0 42 12 22 25 -6 4 -4 12 5 21 8 9 15 22
15 29 0 18 27 26 65 19 51 -10 124 -11 119 -2 -3 4 4 8 15 8 11 0 22 4 26 9 7
13 58 7 63 -8 4 -13 58 -15 67 -1 3 5 44 8 93 6 48 -2 95 1 105 6 10 5 28 11
40 14 12 2 23 8 25 14 2 5 13 10 23 10 11 0 29 5 40 11 14 7 24 7 32 0 7 -5
51 -12 99 -15 47 -3 97 -10 111 -15 14 -5 27 -7 30 -4 4 3 73 7 154 9 81 2
165 6 185 8 20 2 58 -1 83 -6 36 -8 53 -7 72 3 22 12 23 14 6 20 -10 4 -24 2
-30 -3 -9 -8 -13 -6 -13 5 0 23 68 10 99 -20 43 -41 101 -57 101 -28 0 15 39
15 204 0 29 -3 55 0 63 7 15 12 147 -7 171 -25 8 -6 12 -6 12 2 0 19 24 12 53
-15 16 -14 31 -23 34 -20 4 3 -2 13 -13 22 -18 14 -18 15 -1 10 10 -3 43 -9
73 -12 35 -5 54 -11 54 -20 0 -8 11 -16 25 -20 14 -3 25 -10 25 -15 0 -5 17
-8 38 -8 37 1 37 1 7 9 l-30 8 35 1 c39 1 81 -18 45 -20 -24 -2 67 -20 109
-23 16 0 31 -7 34 -13 2 -7 8 -13 13 -13 6 0 7 4 4 10 -3 6 1 7 9 4 9 -3 14
-9 12 -13 -2 -3 33 -6 77 -7 45 0 109 -8 142 -17 70 -19 78 -20 71 -9 -7 11
93 3 116 -9 11 -6 22 -4 32 6 18 18 30 20 23 3 -3 -10 14 -13 67 -14 89 -1
110 -6 135 -28 11 -10 31 -20 43 -22 13 -2 34 -6 47 -10 17 -5 22 -4 17 4 -4
7 -2 12 3 12 6 0 11 -4 11 -9 0 -12 96 -19 165 -11 41 5 61 3 70 -7 8 -7 18
-13 24 -13 6 0 11 -4 11 -9 0 -5 42 -8 94 -7 52 0 90 -2 84 -5 -7 -4 -6 -9 1
-13 6 -4 15 -4 21 -1 12 7 78 -23 105 -48 11 -10 40 -31 65 -45 25 -14 50 -33
56 -41 8 -10 38 -17 87 -21 60 -5 84 -12 116 -34 34 -24 54 -32 84 -35 4 -1 7
-8 7 -16 0 -8 5 -15 11 -15 5 0 7 -5 3 -12 -4 -7 -3 -8 4 -4 7 4 18 4 25 -1 6
-4 17 -8 22 -8 6 -1 9 -6 8 -11 -2 -11 26 -12 43 -1 18 11 22 -2 14 -39 -5
-20 -4 -37 2 -40 5 -3 7 -12 5 -19 -8 -18 27 -43 78 -56 25 -6 45 -17 45 -25
0 -8 6 -11 15 -8 8 4 15 2 15 -3 0 -5 21 -14 46 -21 26 -7 61 -27 82 -46 21
-21 55 -39 81 -46 26 -6 69 -20 96 -31 28 -10 61 -19 73 -19 13 0 31 -4 41
-10 10 -5 33 -11 52 -14 99 -13 251 -46 264 -56 6 -5 26 -10 45 -13 19 -2 52
-11 72 -20 21 -10 41 -17 46 -17 5 0 22 -7 39 -15 16 -8 42 -16 57 -17 14 -1
26 -5 26 -8 0 -3 29 -14 65 -25 36 -10 65 -21 65 -25 0 -4 19 -13 43 -20 103
-32 187 -63 187 -70 0 -11 101 -51 111 -44 5 3 9 0 9 -5 0 -6 7 -11 16 -11 8
0 12 -4 9 -10 -3 -5 1 -10 9 -10 8 0 18 -5 22 -12 4 -7 3 -8 -4 -4 -7 4 -12 3
-12 -3 0 -5 5 -13 10 -16 14 -8 -6 -35 -26 -35 -19 0 -5 -30 15 -31 9 -1 2 -6
-16 -11 -17 -6 -33 -18 -36 -27 -4 -18 24 -61 41 -61 6 0 18 -7 26 -16 9 -8
35 -17 58 -20 24 -3 54 -8 68 -11 14 -2 42 -7 63 -10 20 -3 37 -9 37 -14 0 -5
8 -9 18 -9 10 0 35 -9 57 -20 22 -11 43 -20 47 -20 4 0 8 493 8 1095 l0 1095
-3840 0 -3840 0 0 -449z"/>
<path d="M7639 2830 c-8 -5 -45 -14 -82 -20 -78 -12 -112 -39 -112 -88 0 -35
4 -39 24 -19 7 6 12 8 11 2 -4 -18 0 -38 6 -33 3 3 31 0 62 -8 31 -7 74 -13
95 -14 l37 0 0 95 c0 98 -4 107 -41 85z"/>
<path d="M7190 2362 c-14 -2 -32 -6 -40 -9 -8 -3 -19 -5 -25 -4 -5 1 2 -8 18
-20 38 -29 36 -53 -4 -47 -26 4 -30 2 -26 -14 3 -10 2 -18 -2 -18 -9 0 -54 32
-63 44 -5 8 -8 7 -8 -1 0 -6 5 -15 10 -18 19 -12 9 -30 -25 -46 -20 -9 -39
-12 -48 -7 -9 5 -19 2 -27 -7 -10 -12 -10 -15 3 -15 8 0 20 -6 26 -14 6 -7 33
-19 59 -26 26 -7 62 -21 80 -31 19 -11 38 -16 44 -13 5 3 22 -5 36 -19 33 -30
65 -47 89 -47 10 0 26 -9 36 -20 15 -18 36 -25 60 -21 12 2 7 -23 -8 -43 -8
-10 -21 -16 -29 -13 -8 3 -20 -1 -26 -9 -8 -8 -27 -13 -49 -12 -20 1 -61 -2
-91 -5 -30 -4 -89 -4 -131 1 -42 4 -83 5 -90 1 -34 -17 -99 -31 -164 -34 -112
-6 -174 -14 -193 -24 -9 -5 -60 -10 -112 -10 -52 -1 -102 -2 -110 -2 -8 0 -32
2 -53 4 -26 4 -37 1 -34 -6 2 -7 18 -12 36 -12 22 0 30 -4 26 -14 -4 -9 0 -11
11 -7 9 4 27 0 39 -8 12 -8 32 -12 43 -9 12 3 28 -1 37 -10 20 -20 19 -27 -3
-27 -10 0 -23 -5 -30 -12 -9 -9 -12 -9 -12 0 0 8 -19 10 -64 6 -40 -3 -67 -1
-71 6 -3 6 -10 8 -16 5 -9 -6 -91 6 -204 30 -170 36 -219 45 -250 45 -17 0
-45 5 -61 10 -16 6 -79 12 -139 14 -61 2 -110 5 -110 6 0 11 -136 16 -195 7
-93 -15 -76 -43 45 -75 44 -12 97 -24 118 -27 20 -3 37 -10 37 -15 0 -5 26
-14 58 -20 31 -7 68 -18 82 -26 46 -25 144 -45 271 -54 69 -5 163 -18 209 -30
73 -19 138 -32 340 -71 25 -4 103 -13 174 -19 70 -6 149 -15 175 -21 25 -6 82
-13 125 -15 44 -3 86 -9 95 -13 9 -5 40 -12 69 -16 40 -5 52 -11 52 -24 0 -10
12 -23 27 -30 18 -8 23 -15 15 -20 -25 -15 13 -26 346 -95 l112 -24 0 509 c0
446 -2 509 -15 509 -8 0 -15 3 -15 8 0 4 -15 8 -32 10 -47 3 -81 9 -98 15 -8
3 -22 6 -30 6 -8 0 -73 4 -145 8 -71 4 -141 7 -155 5z m105 -808 c14 -6 14 -8
-1 -25 -17 -18 -16 -19 2 -18 10 1 35 1 54 1 l34 -2 -23 -16 c-20 -15 -34 -15
-105 -6 -44 6 -105 14 -134 17 -59 7 -104 24 -96 36 3 5 22 6 44 3 21 -3 46
-1 56 5 20 11 142 15 169 5z"/>
<path d="M3815 2033 c-12 -12 -16 -27 -12 -54 4 -33 0 -42 -39 -84 -32 -35
-41 -51 -35 -64 10 -18 24 -242 23 -341 -2 -58 -5 -68 -31 -91 -15 -15 -47
-51 -70 -82 -45 -59 -61 -70 -101 -69 -23 0 -23 0 -2 -5 42 -9 22 -23 -35 -24
-86 -1 -125 -17 -46 -18 62 -1 90 -14 54 -26 -11 -3 -25 -21 -31 -40 -10 -30
-9 -39 9 -64 12 -16 21 -33 21 -38 0 -4 22 -24 50 -43 27 -19 49 -42 50 -51 0
-8 6 -24 14 -35 14 -19 15 -19 40 5 17 16 26 35 26 56 0 30 30 128 43 142 4 3
7 24 7 45 l0 38 48 1 c35 0 42 3 27 9 -11 5 -35 9 -52 9 -18 1 -33 5 -33 11 0
5 -14 7 -32 4 -23 -4 -29 -3 -19 4 7 5 11 15 7 21 -11 18 11 47 65 87 30 22
57 52 66 72 14 33 15 33 34 16 10 -9 19 -28 19 -42 0 -31 30 -142 42 -158 13
-17 -2 -44 -23 -44 -16 0 -18 -5 -13 -26 5 -18 3 -25 -4 -20 -6 3 -27 -1 -47
-11 -42 -20 -73 -80 -82 -158 -3 -27 -16 -81 -29 -120 -18 -55 -22 -82 -17
-127 7 -69 -12 -180 -40 -230 -20 -37 -20 -38 -2 -71 24 -46 14 -127 -16 -127
-51 0 -74 32 -58 80 10 28 8 34 -30 75 -36 39 -41 50 -37 78 3 17 8 64 11 102
3 39 11 97 17 130 6 33 10 84 9 114 -2 45 -8 61 -32 89 -20 23 -28 40 -24 53
5 14 2 17 -8 13 -9 -3 -23 6 -36 23 -12 15 -30 39 -41 51 -25 30 -25 39 0 54
57 36 19 42 -350 57 -189 7 -242 13 -330 34 -170 42 -353 61 -505 51 -164 -10
-240 -7 -340 11 -44 9 -127 22 -185 30 -58 9 -141 21 -185 28 -75 12 -80 12
-83 -5 -4 -19 -18 -24 -24 -8 -2 5 -43 11 -91 14 -55 3 -85 2 -82 -4 4 -6 41
-10 83 -11 52 -1 69 -3 52 -9 -14 -4 -159 -8 -322 -9 -164 -1 -304 -4 -312 -7
-24 -9 -426 16 -506 31 -41 8 -112 18 -157 23 l-83 8 0 -693 0 -693 3840 0
3840 0 0 600 c0 473 -3 600 -12 600 -7 0 -53 -7 -103 -16 -100 -18 -151 -15
-277 16 -85 21 -173 33 -383 51 -66 5 -167 21 -225 35 -58 14 -130 27 -160 31
-57 5 -279 -19 -385 -42 -33 -7 -98 -16 -145 -20 -102 -8 -285 -31 -357 -44
-129 -25 -246 -33 -498 -33 -170 0 -257 -3 -235 -8 19 -5 53 -7 75 -4 31 4 36
3 23 -5 -31 -20 -191 -24 -533 -12 -187 7 -348 14 -357 17 -10 3 -18 12 -18
20 0 8 -3 14 -7 15 -31 3 -60 12 -78 23 -25 16 -48 84 -47 138 1 21 -12 77
-28 125 -20 63 -25 92 -18 101 24 28 4 217 -28 272 -16 27 -16 29 4 55 23 29
26 51 16 104 -6 27 -11 31 -40 31 -18 0 -40 -8 -49 -17z"/>
</g>
</svg>
