<?xml version="1.0" standalone="no"?>
<!DOCTYPE svg PUBLIC "-//W3C//DTD SVG 20010904//EN"
 "http://www.w3.org/TR/2001/REC-SVG-20010904/DTD/svg10.dtd">
<svg version="1.0" xmlns="http://www.w3.org/2000/svg"
 width="200.000000pt" height="200.000000pt" viewBox="0 0 200.000000 200.000000"
 preserveAspectRatio="xMidYMid meet">
<metadata>
Created by potrace 1.16, written by Peter Selinger 2001-2019
</metadata>
<g transform="translate(0.000000,200.000000) scale(0.100000,-0.100000)"
fill="#000000" stroke="none">
<path d="M0 1000 l0 -1000 1000 0 1000 0 0 1000 0 1000 -1000 0 -1000 0 0
-1000z m1344 619 c40 -31 56 -71 56 -139 l0 -60 30 0 30 0 0 -110 0 -110 -55
0 -55 0 0 110 c0 95 2 110 16 110 14 0 16 11 12 71 -3 65 -6 74 -36 100 l-32
29 -308 0 c-337 0 -336 0 -367 -60 -20 -39 -20 -129 0 -136 12 -5 15 -27 15
-115 l0 -109 -55 0 -55 0 0 110 0 110 30 0 c30 0 30 1 30 55 0 67 18 114 55
143 27 22 35 22 345 22 307 0 318 -1 344 -21z m-53 -69 c18 -10 19 -23 19
-235 0 -212 -1 -225 -19 -235 -26 -14 -556 -14 -582 0 -18 10 -19 23 -19 235
0 203 2 225 18 234 23 14 557 15 583 1z m159 -522 c0 -6 -7 -20 -17 -30 -15
-17 -42 -18 -431 -18 -373 0 -417 2 -434 17 -47 43 -43 43 432 43 337 0 450
-3 450 -12z m-975 -270 l43 -93 1 93 c1 91 1 92 26 92 l25 0 0 -156 0 -155
-22 3 c-18 2 -33 24 -68 96 l-45 94 0 -94 c0 -93 0 -93 -25 -93 l-25 0 -3 140
c-1 76 0 145 2 152 3 7 15 13 26 13 16 0 30 -20 65 -92z m791 -8 l44 -95 0 98
c0 97 0 97 25 97 l25 0 0 -155 0 -155 -23 0 c-20 0 -30 15 -69 98 l-44 97 0
-95 c1 -95 1 -95 -24 -95 l-25 0 -3 140 c-1 76 0 145 3 153 3 7 15 12 27 10
16 -2 31 -25 64 -98z m294 85 c38 -20 53 -69 48 -161 -3 -64 -7 -77 -30 -100
-23 -23 -35 -27 -90 -28 l-63 -1 -3 153 -3 152 56 0 c31 0 69 -7 85 -15z
m-796 -67 c23 -32 23 -216 0 -225 -8 -3 -20 -1 -25 4 -7 7 -20 7 -39 0 -61
-23 -110 36 -74 90 9 14 34 33 55 42 35 14 39 20 37 46 -4 37 -41 44 -46 8 -5
-32 -52 -33 -52 -1 0 38 28 58 81 58 38 0 51 -5 63 -22z m116 12 c0 -7 6 -7
19 0 26 14 74 13 89 -2 9 -9 15 -9 24 0 16 16 70 16 86 0 8 -8 12 -50 12 -125
l0 -113 -25 0 c-25 0 -25 0 -25 98 0 107 -9 134 -37 116 -15 -9 -18 -28 -21
-113 l-3 -102 -27 3 -27 3 -3 108 c-1 59 -7 107 -12 107 -36 0 -40 -11 -40
-117 l0 -104 -27 3 -28 3 -3 123 -3 122 26 0 c14 0 25 -5 25 -10z"/>
<path d="M1480 695 l0 -115 25 0 c33 0 45 31 45 115 0 84 -12 115 -45 115
l-25 0 0 -115z"/>
</g>
</svg>
