<?xml version="1.0" standalone="no"?>
<!DOCTYPE svg PUBLIC "-//W3C//DTD SVG 20010904//EN"
 "http://www.w3.org/TR/2001/REC-SVG-20010904/DTD/svg10.dtd">
<svg version="1.0" xmlns="http://www.w3.org/2000/svg"
 width="3750.000000pt" height="2501.000000pt" viewBox="0 0 3750.000000 2501.000000"
 preserveAspectRatio="xMidYMid meet">

<g transform="translate(0.000000,2501.000000) scale(0.100000,-0.100000)"
fill="#000000" stroke="none">
<path d="M14755 21405 c-655 -93 -1246 -413 -1597 -865 -71 -92 -178 -252
-178 -267 0 -5 93 -47 208 -93 275 -111 505 -208 624 -264 177 -82 261 -94
410 -56 211 54 406 4 552 -144 236 -237 239 -586 7 -816 -123 -123 -261 -181
-424 -181 -147 1 -270 49 -378 148 -128 118 -175 228 -188 435 -7 111 -11 132
-35 172 -37 63 -98 107 -261 186 -221 108 -423 170 -674 207 -173 25 -502 23
-686 -5 -495 -76 -944 -271 -1335 -582 -418 -332 -783 -883 -935 -1411 -68
-236 -95 -429 -95 -684 0 -189 10 -299 41 -455 179 -898 881 -1590 1866 -1839
185 -47 269 -22 382 113 86 103 127 139 201 176 309 156 697 -10 807 -344 51
-156 32 -338 -50 -479 -68 -115 -195 -216 -332 -263 -67 -23 -96 -28 -180 -27
-175 0 -277 48 -401 191 -148 169 -243 221 -481 261 -134 23 -332 81 -485 142
-392 156 -757 418 -1084 779 l-126 138 -55 -31 c-184 -106 -479 -378 -630
-582 -312 -420 -481 -912 -500 -1455 -32 -942 412 -1801 1179 -2276 154 -95
186 -107 282 -103 73 4 90 8 152 42 128 69 348 179 434 217 206 91 509 181
733 220 221 37 347 42 1242 49 l880 6 56 26 c38 18 70 44 105 85 95 113 181
191 246 223 168 82 337 82 508 -1 89 -43 215 -169 258 -258 108 -223 74 -483
-84 -658 -104 -115 -239 -180 -394 -189 -105 -7 -182 11 -299 69 -71 34 -102
58 -190 146 -81 80 -121 112 -171 136 l-65 30 -676 4 c-697 4 -1073 -5 -1300
-34 -451 -55 -839 -211 -1149 -461 -100 -81 -313 -302 -423 -438 -334 -415
-538 -876 -609 -1375 -20 -143 -17 -563 6 -715 85 -584 307 -1115 636 -1524
392 -487 971 -826 1682 -985 411 -92 807 -72 1192 60 227 78 540 256 768 438
l98 77 -30 59 c-72 143 -100 330 -70 461 53 230 247 404 488 437 286 40 564
-149 637 -433 19 -76 19 -214 0 -290 -35 -137 -118 -255 -233 -331 -78 -53
-225 -100 -345 -114 -55 -5 -107 -15 -117 -20 -11 -6 -70 -51 -132 -101 -380
-305 -802 -517 -1250 -629 l-86 -22 13 -56 c20 -83 71 -224 120 -329 283 -605
859 -1078 1551 -1273 511 -144 1066 -127 1531 46 249 93 600 307 673 411 51
74 49 26 50 1281 l0 1172 483 -2 482 -3 284 -378 284 -377 730 0 731 0 80 -79
c104 -101 150 -125 236 -125 82 0 131 21 245 108 48 37 90 65 93 63 61 -32
207 -97 237 -107 66 -20 99 -39 114 -62 8 -12 17 -68 21 -125 9 -127 41 -200
108 -250 67 -50 106 -57 317 -57 212 0 232 4 304 69 52 47 77 109 95 239 8 60
19 113 23 117 15 15 352 139 377 139 15 0 54 -23 102 -61 98 -79 152 -102 229
-103 89 0 134 27 278 165 149 142 182 196 181 294 -1 74 -24 128 -91 215 -80
105 -81 83 4 280 41 96 81 181 88 189 7 7 51 17 101 22 117 12 173 32 228 80
74 65 87 114 87 334 1 119 -4 197 -12 224 -15 51 -78 125 -128 150 -39 20
-126 41 -169 41 -15 0 -44 5 -64 10 -35 10 -37 13 -69 108 -17 53 -47 127 -65
164 -48 96 -46 122 18 194 69 79 100 148 99 223 0 63 -27 135 -62 167 -10 9
-19 21 -19 26 0 4 106 8 235 8 l235 0 -69 -102 c-101 -153 -105 -162 -106
-248 0 -85 18 -132 70 -184 69 -69 383 -325 425 -346 60 -31 148 -32 210 -4
25 12 100 71 168 132 83 76 130 112 146 112 32 0 428 -128 443 -143 7 -7 25
-78 42 -158 35 -173 60 -237 113 -285 59 -53 100 -67 193 -66 124 1 444 31
501 47 70 20 124 62 158 124 30 56 45 161 46 332 0 59 4 79 18 91 16 15 380
200 428 218 19 8 44 -5 153 -76 146 -95 191 -114 265 -114 73 0 140 35 205
105 98 108 300 353 317 386 25 50 30 137 9 198 -13 41 -40 77 -124 169 -59 64
-110 127 -113 140 -6 22 124 453 143 478 5 6 49 19 97 28 141 28 230 54 272
82 47 31 97 103 106 152 8 43 0 216 -21 423 -18 181 -41 241 -113 296 -59 45
-95 53 -264 60 -81 3 -151 9 -155 12 -16 11 -223 421 -223 442 0 11 34 72 76
135 91 137 109 184 101 265 -7 84 -39 131 -159 235 -277 242 -333 281 -416
291 -93 11 -156 -21 -296 -150 -71 -66 -91 -79 -118 -78 -40 0 -468 137 -484
154 -7 7 -24 69 -38 139 -31 151 -45 186 -93 239 -77 85 -126 95 -392 74 -335
-26 -381 -39 -450 -122 -44 -54 -58 -110 -66 -262 -3 -74 -10 -142 -16 -153
-9 -17 -271 -154 -426 -223 l-62 -27 -121 77 c-138 88 -174 104 -245 104 -90
1 -136 -30 -261 -175 -160 -186 -260 -317 -274 -359 -16 -48 -9 -140 15 -189
10 -21 63 -86 118 -145 54 -58 103 -117 108 -130 7 -18 -2 -64 -41 -195 -28
-94 -53 -179 -56 -188 -5 -17 -28 -18 -297 -18 l-291 0 126 128 c238 239 238
300 8 592 -71 91 -130 172 -130 181 0 9 41 112 90 230 50 118 102 242 116 276
14 34 33 64 42 67 10 3 82 12 162 21 315 33 364 55 424 185 20 43 21 60 21
430 l0 385 -28 57 c-33 67 -83 112 -147 133 -41 13 -172 32 -350 51 -36 3 -73
10 -82 15 -9 5 -26 35 -38 66 -12 32 -62 156 -111 276 -67 162 -87 222 -80
235 5 9 59 80 120 157 137 172 156 208 156 295 0 107 -17 129 -299 413 -284
287 -316 310 -421 310 -82 0 -123 -21 -290 -153 -77 -61 -150 -113 -162 -116
-30 -8 -581 223 -598 250 -6 12 -18 75 -24 141 -13 126 -34 258 -46 288 -7 16
35 17 799 17 l806 0 0 -55 c0 -77 32 -155 83 -202 60 -55 485 -268 554 -278
69 -9 146 14 198 58 22 19 78 91 125 161 53 78 94 129 110 136 26 10 428 -20
461 -34 9 -4 45 -69 79 -144 35 -75 76 -156 92 -179 33 -48 91 -86 160 -103
61 -16 96 -8 369 80 248 80 296 106 341 187 44 78 45 131 9 311 -17 84 -28
159 -24 166 5 7 69 64 143 126 74 63 157 133 185 157 27 24 56 43 63 43 8 0
75 -23 150 -51 158 -59 225 -69 299 -45 88 29 122 68 214 248 152 295 169 335
169 406 0 118 -39 169 -222 293 -77 52 -120 87 -123 102 -6 27 29 469 39 485
3 6 70 42 149 80 272 132 296 203 183 549 -99 303 -129 358 -219 404 -64 33
-120 34 -276 4 -92 -18 -149 -24 -160 -19 -17 9 -253 284 -299 348 l-22 32 51
135 c61 157 69 230 33 310 -37 80 -81 112 -336 239 -231 117 -240 120 -303
120 -122 0 -172 -35 -281 -195 -51 -74 -87 -118 -102 -121 -40 -11 -502 31
-517 47 -7 8 -36 65 -63 127 -28 61 -65 130 -82 152 -70 88 -175 118 -300 85
-160 -42 -459 -146 -498 -175 -95 -69 -120 -171 -83 -349 33 -164 32 -170 -41
-234 -170 -147 -352 -288 -367 -284 -9 3 -74 26 -144 51 -140 50 -193 56 -270
30 -80 -27 -114 -73 -235 -316 -155 -310 -160 -328 -122 -431 25 -66 55 -96
200 -194 63 -44 120 -90 126 -103 15 -33 -11 -479 -29 -496 -7 -7 -73 -40
-147 -73 -199 -91 -255 -154 -254 -286 1 -58 13 -105 68 -271 36 -111 66 -207
66 -213 0 -17 -3107 -15 -3137 2 -12 6 -153 176 -314 377 -161 201 -297 368
-303 372 -6 4 -260 8 -563 8 l-553 0 0 98 c0 53 -3 127 -6 164 l-7 67 -91 -71
c-495 -385 -669 -472 -1041 -519 -58 -8 -396 -14 -945 -18 l-855 -7 -60 -23
c-70 -28 -89 -40 -170 -102 -78 -60 -153 -101 -240 -130 -58 -20 -90 -24 -185
-24 -101 1 -123 4 -184 28 -395 156 -503 659 -206 957 78 77 190 140 286 160
81 17 225 8 298 -18 135 -49 255 -148 342 -282 54 -84 90 -121 149 -153 l40
-22 835 0 c767 0 842 1 925 18 450 91 820 388 1000 803 33 77 75 222 90 307
l6 37 789 0 790 0 15 -36 c25 -59 19 -77 -53 -166 -87 -107 -116 -172 -110
-247 6 -88 37 -137 176 -280 145 -149 188 -175 287 -175 77 0 125 22 237 107
49 37 94 67 102 67 8 0 47 -18 88 -39 40 -22 109 -52 153 -67 44 -15 91 -37
104 -49 26 -25 40 -82 41 -167 0 -110 54 -205 142 -253 47 -26 65 -29 202 -37
164 -9 235 -5 308 18 54 18 116 73 142 128 19 41 45 168 46 227 0 19 6 43 13
52 15 21 341 148 384 150 25 1 52 -14 125 -70 109 -82 144 -98 218 -98 93 0
146 34 301 192 117 118 138 146 154 192 33 101 9 182 -96 318 -32 42 -59 81
-59 86 0 5 29 74 64 155 35 81 71 164 80 184 18 46 35 53 153 66 141 16 216
60 265 156 43 84 45 430 4 517 -43 91 -127 140 -279 162 -54 8 -102 18 -107
23 -4 5 -22 52 -40 104 -18 52 -47 125 -66 163 -51 100 -47 129 22 208 91 102
118 185 91 280 -21 70 -43 100 -184 242 -140 142 -172 161 -268 162 -82 0
-125 -18 -225 -95 -36 -27 -75 -49 -88 -50 -12 0 -64 21 -115 46 -50 26 -121
58 -156 71 -129 48 -136 58 -144 178 -7 118 -61 209 -152 258 -37 20 -57 22
-253 25 -213 3 -214 3 -267 -23 -86 -42 -142 -123 -152 -221 l-6 -54 -1328 0
-1327 0 -4 223 -3 222 -34 70 c-62 127 -192 227 -489 376 -216 109 -427 179
-677 225 -125 23 -542 28 -680 9z m3481 -1427 c-122 -123 -148 -164 -154 -250
-6 -80 17 -138 93 -238 36 -47 65 -94 65 -107 0 -13 -18 -62 -39 -110 -22 -49
-46 -105 -55 -125 l-15 -38 -745 0 -746 0 0 490 0 490 854 0 854 0 -112 -112z
m813 108 c-19 -17 -181 -77 -196 -72 -10 4 -36 22 -57 41 l-39 35 148 0 c82 0
146 -2 144 -4z m826 -811 c140 -36 287 -130 376 -239 58 -71 122 -196 144
-281 66 -251 -8 -520 -192 -701 -155 -152 -385 -230 -600 -204 -177 22 -296
81 -423 209 -147 148 -210 303 -210 515 0 136 18 215 72 326 34 68 60 103 133
176 122 124 245 189 404 214 74 12 221 4 296 -15z m-2148 -382 c-14 -16 -36
-50 -49 -78 -21 -47 -22 -64 -23 -255 0 -204 0 -205 27 -256 52 -98 115 -132
293 -158 86 -13 103 -18 122 -41 50 -58 90 -55 -724 -55 l-746 0 6 257 c4 141
7 337 7 435 l0 178 557 0 557 0 -27 -27z m6293 -1242 c524 -151 786 -739 545
-1226 -118 -239 -302 -389 -566 -462 -49 -14 -100 -18 -219 -17 -139 0 -164 3
-243 27 -249 76 -425 228 -537 462 -73 153 -85 205 -85 375 0 121 4 158 23
223 35 121 102 247 191 355 98 120 295 238 456 272 121 27 325 22 435 -9z
m-6032 -1583 l303 -378 1648 0 1648 0 60 -31 c75 -39 140 -40 312 -4 147 30
166 31 189 7 34 -35 237 -273 259 -303 l22 -31 -23 -61 -23 -62 -2866 0 -2867
0 -2 623 -3 622 520 -2 520 -3 303 -377z m1566 -1095 c-7 -27 -20 -113 -29
-193 -20 -181 -24 -207 -39 -218 -6 -5 -67 -28 -136 -51 -69 -23 -200 -78
-291 -123 -196 -95 -159 -101 -359 58 -153 122 -201 147 -280 148 -102 1 -136
-24 -421 -311 -163 -163 -265 -275 -280 -303 -29 -56 -32 -158 -6 -207 l18
-33 -546 0 -545 0 0 109 c0 60 -5 132 -11 159 l-12 50 -136 4 c-176 6 -266 -4
-341 -38 -62 -28 -135 -96 -182 -169 -76 -119 -228 -194 -391 -195 -75 0 -195
28 -276 66 -102 47 -216 161 -266 265 -88 186 -81 392 21 560 97 161 308 279
499 279 187 0 380 -104 490 -264 21 -31 52 -62 70 -70 42 -20 145 -20 210 -1
109 33 272 134 309 190 13 19 16 55 16 173 0 82 3 152 7 155 3 4 662 7 1464 7
l1457 0 -14 -47z m-1624 -1499 c33 -41 60 -83 60 -92 0 -9 -45 -129 -100 -268
-55 -139 -100 -257 -100 -262 0 -6 -12 -20 -26 -31 -26 -21 -35 -21 -582 -21
l-555 0 6 212 c4 116 7 285 7 375 l0 163 615 0 615 0 60 -76z m2375 -209 c417
-68 747 -366 863 -782 25 -90 27 -112 27 -278 -1 -156 -4 -191 -23 -265 -101
-372 -402 -672 -771 -766 -367 -94 -755 11 -1021 277 -372 372 -421 956 -116
1384 88 123 258 267 401 338 184 91 429 127 640 92z m-3155 -674 c-6 -13 -10
-162 -10 -416 0 -383 1 -397 21 -438 27 -55 74 -104 123 -129 37 -19 208 -46
408 -63 43 -4 84 -12 93 -19 9 -6 51 -96 94 -199 l78 -187 -663 0 -664 0 0
728 c0 401 3 732 7 735 3 4 123 7 265 7 253 0 258 0 248 -19z m845 -1610 c-3
-5 -61 -79 -129 -164 -146 -184 -171 -228 -170 -312 0 -95 26 -139 170 -286
l127 -129 -675 0 -675 0 -6 317 c-4 174 -7 376 -7 450 l0 133 686 0 c422 0
683 -4 679 -9z m6991 -461 c171 -43 351 -156 460 -289 63 -76 146 -235 172
-331 13 -50 17 -103 16 -235 0 -158 -2 -176 -28 -255 -93 -282 -304 -493 -581
-580 -99 -32 -309 -39 -426 -15 -183 37 -315 108 -449 244 -129 130 -183 227
-231 409 -30 111 -30 307 0 417 89 332 359 587 688 650 101 19 271 12 379 -15z
m-6758 -659 c128 -108 246 -108 389 0 l52 39 360 0 c315 0 365 -2 395 -17 19
-9 38 -23 41 -30 3 -8 16 -111 30 -229 28 -247 43 -293 113 -354 75 -67 98
-70 501 -70 212 0 371 4 393 10 72 20 130 70 165 140 29 59 34 83 55 269 25
229 27 235 106 265 36 14 94 16 394 16 l351 0 51 -39 c76 -59 131 -81 201 -81
73 0 127 23 188 79 l44 41 182 0 183 0 -31 -25 c-16 -14 -42 -51 -57 -81 -27
-54 -27 -58 -21 -192 10 -217 36 -430 59 -485 25 -58 84 -111 147 -131 28 -10
105 -18 196 -21 83 -4 160 -8 172 -11 17 -3 39 -36 91 -139 l68 -135 -312 0
c-217 0 -315 3 -320 11 -3 6 -30 22 -58 35 -79 37 -156 33 -242 -11 -67 -35
-67 -35 -199 -35 -128 0 -136 1 -226 36 -129 49 -140 61 -149 166 -13 144 -61
222 -165 270 -47 22 -62 23 -255 23 -234 0 -250 -4 -327 -88 -47 -51 -68 -109
-79 -218 -5 -49 -12 -76 -24 -86 -10 -9 -68 -35 -130 -59 -110 -43 -113 -44
-232 -44 -118 0 -121 0 -158 30 -60 47 -118 70 -183 70 -68 0 -115 -18 -173
-65 l-42 -35 -842 0 c-538 0 -848 4 -860 10 -10 5 -190 223 -400 482 -211 260
-389 479 -398 486 -12 9 -99 12 -355 12 -266 0 -338 3 -335 13 2 6 14 58 28
115 l24 102 774 0 773 0 47 -39z m-1056 -393 c8 -7 181 -218 383 -468 202
-250 379 -467 393 -482 l26 -28 802 0 803 0 -24 -47 c-57 -111 -41 -205 60
-338 35 -47 66 -89 70 -95 3 -5 -19 -65 -48 -132 -30 -68 -62 -146 -71 -175
-9 -28 -24 -57 -33 -65 -9 -7 -62 -18 -118 -24 -121 -14 -178 -37 -233 -94
-62 -63 -72 -106 -75 -316 -2 -209 6 -252 64 -318 52 -59 104 -81 234 -100 91
-13 114 -20 131 -40 24 -27 123 -262 131 -310 4 -28 -4 -43 -63 -116 -37 -47
-76 -105 -87 -130 -23 -50 -28 -152 -9 -186 l11 -21 -620 -6 c-341 -3 -629 -3
-641 2 -11 4 -147 176 -301 382 l-282 374 -517 3 -517 2 -3 1095 c-2 839 -6
1097 -15 1106 -10 10 -29 -3 -88 -57 -143 -131 -265 -231 -349 -288 -181 -122
-390 -214 -610 -271 -269 -69 -244 -67 -1361 -74 l-1010 -6 -60 -25 c-69 -29
-141 -77 -235 -155 -132 -111 -273 -161 -425 -152 -257 14 -467 184 -530 426
-21 81 -21 226 0 305 60 226 252 392 495 426 113 16 250 -13 358 -76 50 -29
166 -141 245 -236 26 -32 69 -70 95 -85 l47 -28 945 0 c1143 0 1253 6 1478 80
320 106 649 372 823 668 l52 87 332 0 c250 0 335 -3 347 -12z m4091 -1574
c149 -34 293 -122 389 -238 259 -313 209 -771 -111 -1014 -395 -301 -950 -129
-1108 343 -24 72 -27 95 -27 220 0 126 3 148 27 221 77 232 283 417 522 469
84 19 223 18 308 -1z"/>
<path d="M26567 15626 c-112 -41 -166 -125 -182 -282 -4 -38 -13 -78 -20 -90
-8 -12 -42 -32 -77 -44 -35 -13 -119 -48 -188 -77 -68 -29 -131 -53 -138 -53
-8 0 -48 28 -91 62 -98 79 -140 98 -220 98 -93 0 -131 -22 -280 -168 -154
-150 -186 -205 -179 -301 5 -70 32 -126 103 -215 30 -38 55 -79 55 -90 0 -11
-24 -77 -54 -146 -29 -69 -61 -146 -70 -173 -10 -26 -25 -51 -34 -56 -10 -4
-53 -11 -98 -15 -45 -3 -104 -13 -131 -21 -67 -20 -134 -80 -163 -147 -22 -49
-24 -66 -24 -253 -1 -177 1 -204 18 -235 57 -108 116 -143 272 -165 60 -9 118
-22 129 -29 22 -15 145 -304 145 -341 0 -11 -29 -56 -65 -100 -89 -109 -110
-154 -110 -235 1 -48 7 -77 24 -110 29 -55 250 -282 308 -317 60 -35 142 -41
209 -15 46 17 195 119 210 143 11 18 56 8 127 -28 39 -20 110 -50 156 -67 109
-40 120 -55 127 -171 3 -50 13 -112 21 -139 19 -61 78 -126 141 -158 45 -22
57 -23 252 -23 l205 0 54 30 c93 52 130 123 151 295 5 46 16 90 22 97 25 24
364 146 390 140 13 -4 61 -36 107 -72 129 -102 222 -118 332 -59 28 16 102 82
177 158 104 106 132 140 145 180 34 100 15 175 -78 298 -36 47 -65 96 -65 107
0 12 20 65 44 118 24 54 58 133 76 176 35 85 27 80 155 97 135 17 202 50 248
118 45 69 51 105 52 302 0 183 0 186 -28 242 -49 100 -114 137 -276 159 -47 7
-91 16 -97 21 -7 5 -26 52 -44 106 -18 53 -48 127 -66 164 -45 90 -44 114 9
178 73 91 87 114 103 168 33 112 -1 182 -172 359 -135 139 -181 167 -275 166
-70 -1 -124 -24 -211 -91 -38 -29 -78 -52 -91 -52 -13 0 -68 22 -123 48 -54
27 -132 61 -172 76 -42 16 -79 37 -86 50 -8 11 -17 54 -21 95 -13 140 -66 229
-164 275 -41 19 -67 21 -241 23 -146 2 -204 -1 -233 -11z m351 -1262 c44 -9
118 -35 172 -61 162 -78 301 -237 359 -408 49 -150 49 -318 -3 -466 -36 -104
-82 -174 -171 -264 -138 -139 -306 -208 -505 -208 -323 0 -583 195 -681 513
-20 63 -24 96 -23 205 0 113 4 140 27 210 115 349 466 552 825 479z"/>
</g>
</svg>
