<?xml version="1.0" standalone="no"?>
<!DOCTYPE svg PUBLIC "-//W3C//DTD SVG 20010904//EN"
 "http://www.w3.org/TR/2001/REC-SVG-20010904/DTD/svg10.dtd">
<svg version="1.0" xmlns="http://www.w3.org/2000/svg"
 width="1078.000000pt" height="952.000000pt" viewBox="0 0 1078.000000 952.000000"
 preserveAspectRatio="xMidYMid meet">

<g transform="translate(0.000000,952.000000) scale(0.100000,-0.100000)"
fill="#000000" stroke="none">
<path d="M5610 8450 c-525 -49 -1097 -102 -1271 -118 -340 -32 -355 -35 -385
-93 -19 -38 -17 -109 10 -399 25 -265 33 -298 86 -325 16 -8 53 -15 83 -15 56
0 2556 225 2617 236 49 8 97 48 109 89 13 50 -34 585 -57 639 -25 59 -61 76
-157 75 -44 -1 -510 -41 -1035 -89z m-65 -352 c32 -28 47 -86 33 -134 -19 -71
-112 -94 -166 -41 -45 45 -39 147 12 182 31 23 90 19 121 -7z m-281 -50 c3
-29 6 -70 6 -90 l0 -38 50 0 c43 0 50 -3 50 -19 0 -16 -9 -20 -62 -23 -35 -2
-66 -2 -70 1 -4 4 -10 54 -14 114 -6 103 -6 107 13 107 17 0 21 -9 27 -52z
m656 37 c20 -24 -3 -44 -30 -27 -19 12 -50 7 -50 -8 0 -10 26 -20 54 -20 44 0
61 -47 29 -82 -22 -25 -84 -24 -107 1 -22 25 -3 38 29 21 25 -13 55 -8 55 9 0
6 -12 13 -27 17 -74 15 -93 45 -56 86 20 23 85 24 103 3z m-735 -87 c3 -51 9
-101 11 -110 4 -14 -1 -18 -20 -18 -24 0 -26 4 -27 43 -1 80 -14 86 -33 13
-23 -85 -41 -87 -85 -8 l-32 57 4 -62 c3 -59 2 -63 -19 -63 -20 0 -22 6 -29
93 -3 50 -9 100 -11 110 -4 13 1 17 25 17 28 0 34 -6 68 -72 l37 -73 25 83
c23 77 26 82 52 82 27 0 27 0 34 -92z m558 72 c34 -27 44 -78 23 -119 -18 -34
-58 -50 -81 -31 -13 11 -15 7 -15 -29 0 -34 -3 -41 -19 -41 -16 0 -20 10 -25
63 -4 34 -9 86 -13 115 -5 48 -4 52 16 52 11 0 21 -5 21 -11 0 -5 10 -3 22 5
29 21 40 20 71 -4z"/>
<path d="M5445 8066 c-29 -21 -25 -93 5 -118 12 -10 28 -18 36 -18 25 0 54 39
54 73 0 64 -49 97 -95 63z"/>
<path d="M5672 8038 c-28 -28 -2 -93 34 -87 13 3 20 14 22 37 5 50 -27 79 -56
50z"/>
<path d="M5095 6294 c-458 -82 -852 -376 -1046 -781 -90 -189 -134 -374 -148
-626 -7 -119 -15 -180 -31 -232 -99 -315 -350 -529 -677 -580 -27 -4 -43 -12
-43 -21 0 -20 42 -18 133 6 274 70 483 246 587 496 44 107 59 185 70 369 17
301 85 511 241 746 74 111 232 272 339 348 204 143 433 229 687 256 39 4 64
12 67 21 7 18 -69 18 -179 -2z"/>
<path d="M5390 6297 c0 -11 11 -18 33 -21 159 -21 256 -41 345 -71 233 -78
450 -224 610 -409 l51 -58 -38 -57 c-113 -168 -180 -338 -228 -580 -3 -19 -10
-7 -31 55 -74 218 -229 394 -438 495 -85 41 -215 79 -271 79 -29 0 -32 -2 -24
-18 6 -12 31 -21 82 -30 336 -58 606 -348 654 -704 3 -27 9 -48 13 -48 24 1
34 26 43 106 35 312 167 590 390 819 241 248 504 374 877 420 37 5 52 11 52
22 0 30 -201 1 -370 -53 -216 -68 -397 -180 -572 -353 l-117 -116 -77 83
c-228 247 -586 427 -896 449 -77 5 -88 4 -88 -10z"/>
<path d="M5200 5723 c-206 -35 -418 -160 -539 -319 -119 -158 -167 -303 -180
-555 -13 -237 -46 -374 -132 -558 -126 -270 -371 -522 -638 -655 -120 -61
-292 -114 -433 -133 -94 -13 -125 -20 -121 -30 18 -46 358 31 555 126 282 135
539 394 666 672 88 190 128 363 141 608 8 138 14 180 36 246 100 300 337 508
639 561 86 15 91 17 81 33 -6 11 -28 12 -75 4z"/>
<path d="M7377 5709 c-162 -39 -304 -124 -423 -252 -123 -133 -194 -282 -219
-464 -6 -45 -4 -53 9 -53 16 0 17 3 36 110 40 223 215 452 429 559 59 29 129
55 177 66 112 24 127 28 132 43 5 17 -48 14 -141 -9z"/>
<path d="M2920 4910 c0 -102 1 -110 20 -110 17 0 19 8 22 68 l3 67 25 -65 c14
-36 32 -66 41 -68 10 -2 22 18 39 64 14 36 28 68 33 71 4 2 7 -28 7 -66 0 -64
2 -71 20 -71 19 0 20 7 20 110 l0 110 -27 0 c-25 0 -31 -7 -58 -75 -16 -41
-32 -71 -36 -67 -3 4 -19 37 -34 75 -23 56 -32 67 -52 67 -23 0 -23 -1 -23
-110z"/>
<path d="M3190 4910 l0 -110 71 0 c62 0 70 2 67 18 -2 13 -15 18 -51 20 l-47
3 0 90 c0 82 -1 89 -20 89 -19 0 -20 -7 -20 -110z"/>
<path d="M5080 4911 l0 -111 45 0 c70 0 111 21 125 65 28 86 -13 144 -109 152
l-61 6 0 -112z m115 55 c14 -10 20 -26 20 -54 0 -50 -19 -72 -61 -72 l-34 0 0
70 0 70 28 0 c16 0 37 -6 47 -14z"/>
<path d="M5300 4910 l0 -110 70 0 c63 0 70 2 70 20 0 17 -7 20 -50 20 -47 0
-50 2 -50 25 0 23 4 25 45 25 38 0 45 3 45 20 0 17 -7 20 -45 20 -41 0 -45 2
-45 25 0 23 3 25 50 25 43 0 50 3 50 20 0 18 -7 20 -70 20 l-70 0 0 -110z"/>
<path d="M5472 5008 c3 -7 20 -57 38 -110 31 -92 35 -98 61 -98 25 0 29 6 58
85 47 130 48 137 20 133 -20 -2 -27 -16 -50 -88 -15 -47 -29 -78 -32 -70 -3 8
-16 48 -28 88 -20 63 -26 72 -47 72 -15 0 -22 -5 -20 -12z"/>
<path d="M7344 5010 c-35 -14 -54 -50 -54 -103 0 -40 5 -53 29 -78 72 -72 184
-4 166 101 -12 69 -78 106 -141 80z m86 -49 c14 -27 13 -94 -2 -109 -17 -17
-58 -15 -80 5 -22 20 -24 71 -2 101 20 28 69 30 84 3z"/>
<path d="M7530 4910 c0 -103 1 -110 20 -110 16 0 20 7 20 35 0 30 3 35 24 35
64 0 99 37 89 93 -7 35 -48 57 -108 57 l-45 0 0 -110z m105 35 c0 -27 -4 -30
-32 -33 -32 -3 -33 -2 -33 33 0 35 1 36 33 33 28 -3 32 -6 32 -33z"/>
<path d="M7755 5008 c-60 -34 -42 -97 32 -113 17 -3 37 -13 44 -22 11 -13 10
-18 -6 -29 -26 -19 -42 -18 -62 6 -18 21 -53 27 -53 10 0 -6 11 -22 25 -35 47
-48 145 -25 145 34 0 34 -25 59 -68 67 -35 7 -57 28 -47 44 8 13 62 13 70 0 8
-13 45 -13 45 -1 0 17 -52 51 -79 51 -14 0 -35 -6 -46 -12z"/>
<path d="M1676 4822 c-17 -4 -18 -11 -12 -75 66 -691 628 -1238 1324 -1290 44
-4 52 -2 50 12 -2 11 -20 18 -63 24 -359 50 -611 162 -834 372 -248 234 -397
530 -435 859 -10 91 -13 101 -30 98z"/>
<path d="M2245 4764 c24 -192 142 -405 298 -534 121 -101 332 -190 449 -190
52 0 52 27 1 35 -189 32 -333 99 -453 212 -133 125 -215 270 -250 443 -13 65
-21 86 -35 88 -16 4 -17 -2 -10 -54z"/>
<path d="M6756 4745 c-7 -73 1 -108 53 -228 71 -164 238 -327 418 -408 117
-54 272 -85 288 -58 4 6 5 12 3 14 -2 2 -48 13 -103 24 -332 67 -592 341 -644
678 l-7 48 -8 -70z"/>
<path d="M6464 4005 c-7 -18 78 -118 169 -197 234 -201 531 -326 835 -351 28
-2 52 -1 52 2 -1 22 -27 33 -106 42 -326 40 -609 182 -842 423 -51 53 -95 96
-98 96 -2 0 -7 -7 -10 -15z"/>
</g>
</svg>
